<svg width="257" height="256" viewBox="0 0 257 256" fill="none" xmlns="http://www.w3.org/2000/svg">
<rect x="4.5" y="4.5" width="247" height="247" rx="25.5" fill="#090724" stroke="white" stroke-width="9"/>
<path d="M31.0017 38.0146L38.6564 21.0942L41.2484 21.094L49.0017 38.0135L45.8577 38.0137L43.7933 33.2618L45.0414 34.1017L34.8894 34.1024L36.1853 33.2623L34.1217 38.0144L31.0017 38.0146ZM39.9286 24.4061L36.5452 32.4223L35.9212 31.6783L43.9852 31.6778L43.4812 32.4218L40.0246 24.4061L39.9286 24.4061ZM55.6737 38.0131L55.6724 21.0931L58.7684 21.0929L58.7695 35.3969L66.7375 35.3963L66.7377 38.0123L55.6737 38.0131ZM81.1493 38.2514C79.2453 38.2515 77.6453 37.8996 76.3492 37.1957C75.0532 36.4918 74.0771 35.4919 73.421 34.1959C72.7649 32.8999 72.4368 31.364 72.4366 29.588C72.4365 27.796 72.7884 26.2519 73.4923 24.9559C74.1962 23.6439 75.2041 22.6358 76.5161 21.9317C77.844 21.2116 79.436 20.8515 81.292 20.8514C82.524 20.8513 83.604 21.0192 84.532 21.3552C85.4601 21.6751 86.2761 22.1471 86.9801 22.771L85.9483 25.1711C85.4363 24.7711 84.9483 24.4512 84.4842 24.2112C84.0202 23.9712 83.5402 23.8033 83.0442 23.7073C82.5482 23.5953 81.9722 23.5394 81.3162 23.5394C79.4602 23.5395 78.0522 24.0676 77.0923 25.1237C76.1484 26.1637 75.6765 27.6598 75.6766 29.6118C75.6768 31.5638 76.1249 33.0517 77.021 34.0757C77.9331 35.0996 79.3571 35.6115 81.2931 35.6114C81.9491 35.6114 82.6051 35.5473 83.2611 35.4193C83.9331 35.2912 84.5891 35.1072 85.229 34.8671L84.6531 36.1632L84.6528 31.0992L80.6928 31.0994L80.6926 28.8434L87.2206 28.843L87.2212 36.979C86.4372 37.3791 85.5013 37.6911 84.4133 37.9152C83.3253 38.1393 82.2373 38.2513 81.1493 38.2514ZM95.0023 29.5385C95.0021 27.7625 95.322 26.2265 95.9619 24.9304C96.6178 23.6344 97.5538 22.6343 98.7697 21.9303C99.9856 21.2102 101.434 20.8501 103.114 20.85C104.778 20.8499 106.218 21.2098 107.434 21.9297C108.65 22.6336 109.586 23.6336 110.242 24.9295C110.914 26.2255 111.25 27.7535 111.25 29.5135C111.25 31.2895 110.915 32.8335 110.243 34.1455C109.587 35.4416 108.651 36.4496 107.435 37.1697C106.219 37.8898 104.779 38.2499 103.115 38.25C101.435 38.2501 99.9869 37.8902 98.7708 37.1703C97.5708 36.4503 96.6427 35.4424 95.9866 34.1464C95.3305 32.8345 95.0024 31.2985 95.0023 29.5385ZM98.2423 29.5383C98.2424 31.4423 98.6505 32.9303 99.4666 34.0022C100.283 35.0742 101.499 35.6101 103.115 35.61C104.683 35.6099 105.891 35.0738 106.739 34.0018C107.587 32.9297 108.01 31.4417 108.01 29.5377C108.01 27.6177 107.586 26.1297 106.738 25.0738C105.906 24.0178 104.698 23.4899 103.114 23.49C101.498 23.4901 100.282 24.0182 99.4659 25.0742C98.65 26.1303 98.2421 27.6183 98.2423 29.5383ZM119.246 38.0089L119.244 21.0889L126.636 21.0885C128.492 21.0883 129.924 21.5283 130.932 22.4082C131.956 23.2881 132.469 24.5121 132.469 26.0801C132.469 27.1201 132.237 28.0081 131.773 28.7441C131.325 29.4802 130.677 30.0482 129.829 30.4483C128.981 30.8323 127.981 31.0244 126.829 31.0245L127.165 30.5684L127.981 30.5684C128.653 30.5683 129.253 30.7443 129.781 31.0963C130.309 31.4482 130.741 31.9842 131.077 32.7042L133.55 38.008L130.142 38.0082L127.645 32.5124C127.421 31.9524 127.077 31.5844 126.613 31.4085C126.165 31.2325 125.621 31.1445 124.981 31.1446L122.341 31.1447L122.342 38.0087L119.246 38.0089ZM122.341 28.8647L126.133 28.8645C127.221 28.8644 128.045 28.6404 128.605 28.1923C129.181 27.7283 129.469 27.0563 129.469 26.1763C129.469 25.2963 129.181 24.6323 128.604 24.1843C128.044 23.7364 127.22 23.5124 126.132 23.5125L122.34 23.5127L122.341 28.8647ZM140.897 38.0075L140.896 21.0875L143.992 21.0873L143.993 38.0073L140.897 38.0075ZM156.501 38.0065L156.5 23.6305L150.908 23.6309L150.908 21.0869L165.188 21.086L165.188 23.63L159.596 23.6303L159.597 38.0063L156.501 38.0065ZM172.177 38.0055L172.176 21.0855L175.272 21.0853L175.272 28.1413L183.936 28.1408L183.936 21.0848L187.032 21.0846L187.033 38.0046L183.937 38.0048L183.936 30.7088L175.272 30.7093L175.273 38.0053L172.177 38.0055ZM195.587 38.004L195.585 21.084L198.297 21.0838L204.514 35.0754L203.77 35.0755L209.985 21.0831L212.673 21.0829L212.675 38.0029L209.867 38.0031L209.866 25.4511L210.73 25.451L205.043 38.0034L203.195 38.0035L197.506 25.4519L198.394 25.4518L198.395 38.0038L195.587 38.004ZM227.15 38.242C225.79 38.2421 224.534 38.0741 223.382 37.7382C222.245 37.3863 221.269 36.9063 220.453 36.2984L221.413 33.8743C221.957 34.2583 222.525 34.5863 223.117 34.8582C223.709 35.1142 224.341 35.3141 225.013 35.4581C225.685 35.5861 226.397 35.65 227.149 35.65C228.413 35.6499 229.325 35.4418 229.885 35.0258C230.445 34.6098 230.725 34.0657 230.725 33.3937C230.725 32.8017 230.533 32.3537 230.149 32.0498C229.765 31.7298 229.077 31.4658 228.085 31.2579L225.373 30.7061C223.821 30.3862 222.661 29.8503 221.893 29.0983C221.125 28.3464 220.741 27.3384 220.741 26.0744C220.741 25.0184 221.02 24.0984 221.58 23.3143C222.14 22.5303 222.924 21.9222 223.932 21.4902C224.94 21.0581 226.116 20.842 227.46 20.8419C228.66 20.8419 229.772 21.0178 230.796 21.3697C231.82 21.7057 232.676 22.1936 233.364 22.8336L232.405 25.1376C231.717 24.5617 230.964 24.1377 230.148 23.8658C229.332 23.5778 228.42 23.4339 227.412 23.4339C226.276 23.434 225.388 23.6581 224.748 24.1061C224.125 24.5382 223.813 25.1382 223.813 25.9062C223.813 26.4982 224.005 26.9702 224.389 27.3221C224.789 27.6741 225.461 27.9461 226.405 28.138L229.093 28.6658C230.693 28.9857 231.877 29.5137 232.645 30.2496C233.413 30.9696 233.797 31.9455 233.797 33.1775C233.797 34.1855 233.525 35.0736 232.981 35.8416C232.437 36.5936 231.669 37.1857 230.678 37.6177C229.686 38.0338 228.51 38.2419 227.15 38.242Z" fill="#B7B4B9"/>
<ellipse cx="71.909" cy="68.4723" rx="71.909" ry="68.4723" transform="matrix(1 -6.56741e-05 7.41807e-05 1 56.0046 54.2524)" fill="#D9D9D9"/>
<path d="M100.052 115.631C101.186 115.631 102.183 115.325 103.044 114.713C103.928 114.101 104.37 113.183 104.37 111.959C104.37 110.712 103.894 109.76 102.942 109.103C102.012 108.446 100.675 107.879 98.9296 107.403C97.2069 106.905 95.9489 106.474 95.1555 106.111C94.3848 105.749 93.6481 105.273 92.9454 104.684C91.54 103.505 90.8372 101.68 90.837 99.2097C90.8368 97.1924 91.5507 95.4584 92.9786 94.0076C94.4292 92.5568 96.4011 91.8314 98.8944 91.8312C100.096 91.8311 101.342 92.0124 102.634 92.375C103.949 92.7149 104.765 92.8848 105.083 92.8848C105.4 92.8848 105.683 92.6581 105.932 92.2047L106.306 92.2047L106.545 99.0727L106.001 99.0727C104.913 97.1008 103.768 95.5256 102.567 94.347C101.388 93.1457 100.096 92.5451 98.6905 92.5452C97.3078 92.5453 96.2312 92.874 95.4606 93.5314C94.6899 94.1662 94.3047 95.0275 94.3048 96.1155C94.3048 97.1808 94.7582 98.0081 95.6649 98.5974C96.5943 99.164 97.7277 99.6286 99.065 99.9912C100.402 100.354 101.275 100.603 101.683 100.739C102.114 100.875 102.635 101.068 103.247 101.317C103.882 101.544 104.392 101.793 104.777 102.065C105.185 102.314 105.605 102.643 106.035 103.051C106.489 103.436 106.84 103.867 107.089 104.343C107.701 105.431 108.008 106.723 108.008 108.219C108.008 110.667 107.237 112.639 105.696 114.135C104.178 115.608 102.172 116.345 99.6783 116.345C98.3863 116.345 96.9016 116.175 95.2242 115.835C93.5695 115.496 92.6515 115.326 92.4702 115.326C92.1528 115.326 91.8469 115.666 91.5523 116.346L91.0763 116.346L90.7357 108.254L91.3137 108.254C92.3111 110.226 93.5806 111.948 95.122 113.421C96.6861 114.895 98.3295 115.631 100.052 115.631ZM111.429 111.142L111.428 100.432L109.558 100.433L109.558 99.8205L111.428 99.8204L111.427 95.4344L117.751 93.87L117.752 99.82L122.172 99.8197L122.172 100.432L117.752 100.432L117.753 111.89C117.753 112.955 117.855 113.737 118.059 114.236C118.286 114.735 118.739 114.984 119.419 114.984C120.099 114.984 120.688 114.644 121.187 113.964C121.708 113.284 122.048 112.354 122.207 111.176L122.785 111.244C122.603 112.808 122.105 114.054 121.289 114.984C120.473 115.89 119.124 116.344 117.243 116.344C115.362 116.344 113.922 115.97 112.925 115.222C111.927 114.474 111.429 113.114 111.429 111.142ZM131.269 108.013L132.255 108.013L132.255 105.395C132.255 103.242 132.13 101.802 131.881 101.077C131.654 100.329 131.201 99.9551 130.521 99.9551C130.113 99.9552 129.739 100.069 129.399 100.295C129.081 100.499 128.923 100.794 128.923 101.179C128.923 101.542 128.991 101.916 129.127 102.301L129.977 102.301C130.158 102.777 130.249 103.355 130.249 104.035C130.249 104.692 129.966 105.271 129.399 105.769C128.832 106.245 128.118 106.483 127.257 106.483C125.308 106.483 124.333 105.543 124.333 103.662C124.333 100.874 126.701 99.4794 131.439 99.4791C134.136 99.4789 135.995 99.9434 137.015 100.873C138.057 101.779 138.579 103.457 138.579 105.905L138.58 112.807C138.58 113.985 138.908 114.575 139.566 114.575C140.336 114.574 140.79 113.407 140.925 111.072L141.435 111.106C141.345 113.101 140.971 114.472 140.314 115.22C139.656 115.969 138.58 116.343 137.084 116.343C134.364 116.343 132.8 115.504 132.392 113.827C132.097 114.688 131.655 115.323 131.066 115.731C130.476 116.139 129.615 116.343 128.482 116.343C125.127 116.343 123.45 114.972 123.45 112.23C123.449 110.62 124.084 109.521 125.353 108.931C126.645 108.319 128.617 108.013 131.269 108.013ZM129.91 112.195C129.91 113.374 129.966 114.133 130.08 114.473C130.216 114.813 130.454 114.983 130.794 114.983C131.156 114.983 131.485 114.7 131.78 114.133C132.097 113.544 132.256 112.739 132.255 111.719L132.255 108.557L132.017 108.557C130.612 108.557 129.909 109.589 129.909 111.651L129.91 112.195ZM153.125 100.77C152.286 100.77 151.55 101.314 150.915 102.402C150.28 103.49 149.963 104.782 149.963 106.278L149.964 115.39L152.378 115.39L152.378 116.002L141.77 116.002L141.77 115.39L143.64 115.39L143.639 100.43L141.769 100.43L141.769 99.8184L149.963 99.8179L149.963 103.082C150.258 101.926 150.824 101.042 151.663 100.43C152.501 99.795 153.453 99.4776 154.519 99.4776C155.584 99.4775 156.445 99.7834 157.103 100.395C157.783 100.985 158.123 101.835 158.123 102.945C158.123 104.033 157.874 104.872 157.375 105.461C156.877 106.051 156.106 106.345 155.063 106.346C154.043 106.346 153.284 106.006 152.785 105.326C152.309 104.646 152.252 103.705 152.615 102.504L153.839 102.504C154.406 101.348 154.167 100.77 153.125 100.77ZM160.304 111.139L160.303 100.429L158.433 100.429L158.433 99.8173L160.303 99.8172L160.302 95.4312L166.626 93.8668L166.627 99.8168L171.047 99.8165L171.047 100.428L166.627 100.429L166.628 111.887C166.628 112.952 166.73 113.734 166.934 114.233C167.161 114.731 167.614 114.981 168.294 114.981C168.974 114.981 169.563 114.641 170.062 113.961C170.583 113.281 170.923 112.351 171.082 111.172L171.66 111.24C171.478 112.804 170.98 114.051 170.164 114.981C169.348 115.887 167.999 116.341 166.118 116.341C164.237 116.341 162.797 115.967 161.8 115.219C160.802 114.471 160.304 113.111 160.304 111.139ZM89.3428 123.506L97.5368 123.505L97.5377 135.949C97.9003 134.907 98.4556 134.068 99.2035 133.433C99.9515 132.798 101.085 132.481 102.603 132.481C106.117 132.481 107.874 134.373 107.874 138.159L107.875 148.393L109.779 148.392L109.779 149.004L100.157 149.005L100.157 148.393L101.551 148.393L101.55 137.343C101.55 135.983 101.459 135.11 101.278 134.725C101.096 134.317 100.768 134.113 100.292 134.113C99.5662 134.113 98.9203 134.589 98.3537 135.541C97.8097 136.493 97.5378 137.649 97.5379 139.009L97.5386 148.393L99.0006 148.393L99.0007 149.005L89.3447 149.006L89.3446 148.394L91.2146 148.394L91.2128 124.118L89.3428 124.118L89.3428 123.506ZM119.238 149.344C116.314 149.344 114.115 148.596 112.642 147.1C111.191 145.582 110.465 143.485 110.465 140.81C110.465 138.113 111.281 136.05 112.913 134.622C114.567 133.194 116.664 132.48 119.203 132.48C124.348 132.48 126.819 135.063 126.615 140.231L117.027 140.232L117.027 141.558C117.027 143.779 117.311 145.457 117.878 146.59C118.444 147.723 119.43 148.29 120.836 148.29C123.465 148.29 125.188 146.884 126.003 144.073L126.615 144.175C126.185 145.807 125.403 147.077 124.27 147.984C123.159 148.89 121.482 149.344 119.238 149.344ZM117.061 139.552L120.563 139.552L120.563 137.886C120.563 136.05 120.449 134.803 120.223 134.146C120.019 133.466 119.588 133.126 118.931 133.126C118.296 133.126 117.82 133.489 117.503 134.214C117.208 134.917 117.061 136.141 117.061 137.886L117.061 139.552ZM139.182 133.771C138.343 133.771 137.607 134.315 136.972 135.403C136.338 136.491 136.02 137.783 136.02 139.279L136.021 148.391L138.435 148.391L138.435 149.003L127.827 149.003L127.827 148.391L129.697 148.391L129.696 133.431L127.826 133.431L127.826 132.819L136.02 132.819L136.02 136.083C136.315 134.927 136.881 134.043 137.72 133.431C138.559 132.796 139.511 132.479 140.576 132.478C141.641 132.478 142.503 132.784 143.16 133.396C143.84 133.986 144.18 134.836 144.18 135.946C144.18 137.034 143.931 137.873 143.432 138.462C142.934 139.052 142.163 139.346 141.12 139.346C140.1 139.347 139.341 139.007 138.842 138.327C138.366 137.647 138.31 136.706 138.672 135.505L139.896 135.505C140.463 134.348 140.225 133.77 139.182 133.771ZM153.437 149.342C150.513 149.342 148.314 148.594 146.841 147.098C145.39 145.579 144.665 143.483 144.664 140.808C144.664 138.111 145.48 136.048 147.112 134.62C148.767 133.192 150.863 132.478 153.402 132.478C158.547 132.477 161.018 135.061 160.814 140.229L151.226 140.23L151.227 141.556C151.227 143.777 151.51 145.454 152.077 146.588C152.644 147.721 153.63 148.288 155.035 148.288C157.664 148.287 159.387 146.882 160.203 144.071L160.815 144.173C160.384 145.805 159.602 147.075 158.469 147.981C157.358 148.888 155.681 149.341 153.437 149.342ZM151.26 139.55L154.762 139.55L154.762 137.884C154.762 136.048 154.649 134.801 154.422 134.144C154.218 133.464 153.787 133.124 153.13 133.124C152.495 133.124 152.019 133.486 151.702 134.212C151.407 134.914 151.26 136.138 151.26 137.884L151.26 139.55Z" fill="#090724"/>
<path d="M217.929 52.6671C214.983 52.702 212.628 55.1178 212.667 58.0631C212.706 61.0083 215.126 63.3677 218.071 63.3329C221.017 63.298 223.372 60.8822 223.333 57.9369C223.294 54.9917 220.874 52.6323 217.929 52.6671ZM219.038 188.624C219.434 189.009 220.067 189.002 220.452 188.607L226.73 182.168C227.116 181.773 227.107 181.14 226.712 180.754C226.316 180.368 225.683 180.376 225.297 180.771L219.717 186.494L213.985 180.905C213.589 180.519 212.956 180.526 212.57 180.921C212.185 181.316 212.194 181.95 212.589 182.335L219.038 188.624ZM217 58.0118L218.736 187.92L220.735 187.896L219 57.9882L217 58.0118Z" fill="white"/>
<rect width="255.996" height="54.472" rx="27.236" transform="matrix(1 -6.46635e-05 7.53401e-05 1 0 201.528)" fill="#D9D9D9"/>
<path d="M68.6249 214.209L68.9655 222.743L68.3195 222.743C67.322 219.729 66.4378 217.677 65.6671 216.59C64.8963 215.479 63.7856 214.924 62.335 214.924L61.927 214.924L61.9286 237.296L64.8186 237.296L64.8187 238.01L52.4087 238.01L52.4086 237.296L55.2986 237.296L55.297 214.924L54.855 214.924C53.4043 214.924 52.2823 215.502 51.4891 216.658C50.6958 217.792 49.8233 219.821 48.8715 222.745L48.2255 222.745L48.5649 214.211L68.6249 214.209ZM70.5498 212.509L78.7438 212.509L78.7447 224.953C79.1073 223.91 79.6625 223.071 80.4105 222.437C81.1585 221.802 82.2918 221.484 83.8104 221.484C87.3238 221.484 89.0806 223.377 89.0809 227.162L89.0816 237.396L90.9856 237.396L90.9857 238.008L81.3637 238.008L81.3636 237.396L82.7576 237.396L82.7568 226.346C82.7567 224.986 82.666 224.114 82.4846 223.728C82.3032 223.32 81.9746 223.116 81.4986 223.116C80.7732 223.117 80.1273 223.593 79.5607 224.545C79.0167 225.497 78.7448 226.653 78.7449 228.013L78.7456 237.397L80.2076 237.397L80.2077 238.009L70.5517 238.009L70.5516 237.397L72.4216 237.397L72.4198 213.121L70.5498 213.121L70.5498 212.509ZM100.445 238.347C97.5209 238.347 95.3221 237.6 93.8487 236.104C92.3979 234.585 91.6724 232.488 91.6722 229.814C91.672 227.116 92.4879 225.054 94.1198 223.626C95.7743 222.198 97.8709 221.483 100.41 221.483C105.555 221.483 108.026 224.067 107.822 229.235L98.2342 229.235L98.2343 230.561C98.2344 232.783 98.5179 234.46 99.0846 235.593C99.6514 236.727 100.637 237.293 102.043 237.293C104.672 237.293 106.395 235.888 107.21 233.077L107.822 233.179C107.392 234.811 106.61 236.08 105.477 236.987C104.366 237.894 102.689 238.347 100.445 238.347ZM98.2681 228.555L101.77 228.555L101.77 226.889C101.77 225.053 101.656 223.806 101.43 223.149C101.226 222.469 100.795 222.129 100.138 222.129C99.503 222.129 99.027 222.492 98.7097 223.217C98.4151 223.92 98.2679 225.144 98.268 226.889L98.2681 228.555ZM109.101 221.823L117.295 221.822L117.295 224.95C117.658 223.907 118.213 223.069 118.961 222.434C119.709 221.799 120.842 221.482 122.361 221.482C125.874 221.482 127.631 223.374 127.631 227.159L127.632 237.393L129.536 237.393L129.536 238.005L119.914 238.006L119.914 237.394L121.308 237.394L121.307 226.344C121.307 224.984 121.216 224.111 121.035 223.726C120.854 223.318 120.525 223.114 120.049 223.114C119.324 223.114 118.678 223.59 118.111 224.542C117.567 225.494 117.295 226.65 117.295 228.01L117.296 237.394L118.758 237.394L118.758 238.006L109.102 238.007L109.102 237.395L110.972 237.395L110.971 222.435L109.101 222.435L109.101 221.823ZM137.794 233.143L137.793 222.433L135.923 222.433L135.923 221.821L137.793 221.821L137.793 217.435L144.117 215.87L144.117 221.82L148.537 221.82L148.537 222.432L144.117 222.432L144.118 233.89C144.118 234.956 144.22 235.738 144.424 236.236C144.651 236.735 145.105 236.984 145.785 236.984C146.465 236.984 147.054 236.644 147.552 235.964C148.074 235.284 148.414 234.355 148.572 233.176L149.15 233.244C148.969 234.808 148.47 236.055 147.655 236.984C146.839 237.891 145.49 238.344 143.609 238.344C141.727 238.345 140.288 237.971 139.291 237.223C138.293 236.475 137.794 235.115 137.794 233.143ZM149.474 212.504L157.668 212.503L157.669 224.947C158.031 223.905 158.586 223.066 159.334 222.431C160.082 221.797 161.216 221.479 162.734 221.479C166.248 221.479 168.004 223.371 168.005 227.157L168.005 237.391L169.909 237.391L169.909 238.003L160.287 238.003L160.287 237.391L161.681 237.391L161.681 226.341C161.681 224.981 161.59 224.109 161.408 223.723C161.227 223.315 160.898 223.111 160.422 223.111C159.697 223.111 159.051 223.587 158.484 224.539C157.941 225.491 157.669 226.647 157.669 228.007L157.669 237.391L159.131 237.391L159.131 238.003L149.475 238.004L149.475 237.392L151.345 237.392L151.344 213.116L149.474 213.116L149.474 212.504ZM175.423 219.472C174.222 219.472 173.361 219.166 172.839 218.554C172.341 217.943 172.091 217.183 172.091 216.277C172.091 215.37 172.363 214.622 172.907 214.032C173.473 213.443 174.323 213.148 175.457 213.148C176.59 213.148 177.451 213.42 178.041 213.964C178.63 214.485 178.925 215.245 178.925 216.242C178.925 217.217 178.642 217.999 178.075 218.588C177.509 219.178 176.625 219.472 175.423 219.472ZM170.289 221.819L178.619 221.818L178.621 237.39L180.525 237.39L180.525 238.002L170.427 238.003L170.427 237.391L172.297 237.391L172.295 222.431L170.289 222.431L170.289 221.819ZM182 238.342L181.999 232.256L182.407 232.256C182.997 234.228 183.79 235.61 184.788 236.404C185.785 237.197 187.032 237.594 188.528 237.593C190.84 237.593 191.996 236.857 191.995 235.383C191.995 234.749 191.712 234.273 191.145 233.955C190.261 233.457 189.128 233.071 187.745 232.799C186.204 232.392 184.912 231.848 183.869 231.168C182.622 230.352 181.999 229.06 181.999 227.292C181.999 225.524 182.543 224.119 183.631 223.076C184.718 222.01 186.169 221.478 187.982 221.477C189.093 221.477 190.238 221.738 191.417 222.259C191.847 222.441 192.176 222.531 192.403 222.531C192.629 222.531 192.822 222.452 192.981 222.293C193.139 222.134 193.332 221.84 193.558 221.409L193.932 221.409L193.933 226.611L193.525 226.611C192.369 223.665 190.578 222.191 188.152 222.191C187.087 222.192 186.294 222.384 185.773 222.77C185.251 223.132 184.991 223.597 184.991 224.164C184.991 224.504 185.07 224.776 185.229 224.98C185.387 225.161 185.512 225.297 185.603 225.388C185.693 225.478 185.841 225.58 186.045 225.694C186.249 225.784 186.419 225.864 186.555 225.932C186.691 225.977 186.895 226.045 187.167 226.136C187.461 226.226 187.677 226.283 187.813 226.305C189.354 226.691 190.465 227.031 191.145 227.325C191.825 227.597 192.471 227.937 193.083 228.345C194.33 229.206 194.953 230.6 194.953 232.527C194.953 234.431 194.387 235.882 193.254 236.879C192.12 237.854 190.568 238.341 188.596 238.341C187.19 238.342 185.83 238.013 184.516 237.356C184.244 237.174 184.028 237.084 183.87 237.084C183.371 237.084 182.884 237.503 182.408 238.342L182 238.342Z" fill="#090724"/>
</svg>
